<svg width="393" height="328" viewBox="0 0 393 328" fill="none" xmlns="http://www.w3.org/2000/svg">
<g clip-path="url(#clip0_4682_31929)">
<path d="M199 327.562C306.083 327.562 392.89 322.494 392.89 316.242C392.89 309.99 306.083 304.922 199 304.922C91.9179 304.922 5.11035 309.99 5.11035 316.242C5.11035 322.494 91.9179 327.562 199 327.562Z" fill="#ECF2FF"/>
<path d="M281.47 291.229C281.47 291.229 276.47 280.429 282.17 269.769C287.87 259.109 289.47 256.609 285.87 254.429C282.27 252.249 280.6 262.999 280.6 262.999C278.809 258.163 278.623 252.879 280.07 247.929C282.58 240.219 284.16 227.669 280.73 226.319C277.3 224.969 280.08 241.979 277.1 247.779C275.583 243.71 274.605 239.461 274.19 235.139C273.78 228.949 274.42 219.059 271.71 216.529C269 213.999 267.27 215.739 269.93 229.409C271.529 237.57 272.412 245.854 272.57 254.169C272.57 254.169 266.7 236.249 262.75 235.729C258.8 235.209 258.81 241.009 262.19 246.039C265.57 251.069 272.08 260.089 273.14 264.729C273.14 264.729 266.69 251.249 260.89 255.379C255.09 259.509 265.94 267.659 270.78 270.599C275.62 273.539 278.98 291.989 278.98 291.989L281.47 291.229Z" fill="#4C80ED"/>
<path opacity="0.2" d="M281.47 291.229C281.47 291.229 276.47 280.429 282.17 269.769C287.87 259.109 289.47 256.609 285.87 254.429C282.27 252.249 280.6 262.999 280.6 262.999C278.809 258.163 278.623 252.879 280.07 247.929C282.58 240.219 284.16 227.669 280.73 226.319C277.3 224.969 280.08 241.979 277.1 247.779C275.583 243.71 274.605 239.461 274.19 235.139C273.78 228.949 274.42 219.059 271.71 216.529C269 213.999 267.27 215.739 269.93 229.409C271.529 237.57 272.412 245.854 272.57 254.169C272.57 254.169 266.7 236.249 262.75 235.729C258.8 235.209 258.81 241.009 262.19 246.039C265.57 251.069 272.08 260.089 273.14 264.729C273.14 264.729 266.69 251.249 260.89 255.379C255.09 259.509 265.94 267.659 270.78 270.599C275.62 273.539 278.98 291.989 278.98 291.989L281.47 291.229Z" fill="black"/>
<path d="M277.56 295.659C277.56 295.659 282.38 284.779 276.56 274.219C270.74 263.659 269.1 261.159 272.68 258.929C276.26 256.699 278.04 267.369 278.04 267.369C279.774 262.511 279.897 257.223 278.39 252.289C275.79 244.629 274.06 232.099 277.48 230.699C280.9 229.299 278.32 246.349 281.36 252.099C282.831 248.008 283.759 243.742 284.12 239.409C284.46 233.219 283.7 223.339 286.38 220.769C289.06 218.199 290.81 219.919 288.31 233.619C286.807 241.801 286.024 250.1 285.97 258.419C285.97 258.419 291.63 240.419 295.57 239.839C299.51 239.259 299.57 245.059 296.25 250.139C292.93 255.219 286.54 264.339 285.52 268.989C285.52 268.989 291.81 255.409 297.66 259.459C303.51 263.509 292.76 271.809 287.96 274.829C283.16 277.849 280.02 296.339 280.02 296.339L277.56 295.659Z" fill="#4C80ED"/>
<path d="M299.8 287.91H259.96L263.19 316.42H296.58L299.8 287.91Z" fill="#263238"/>
<path opacity="0.07" d="M378.05 4.40234H167.49C166.12 4.40234 165.01 5.51267 165.01 6.88234V193.902C165.01 195.272 166.12 196.382 167.49 196.382H378.05C379.419 196.382 380.53 195.272 380.53 193.902V6.88234C380.53 5.51267 379.419 4.40234 378.05 4.40234Z" fill="black"/>
<path d="M369.9 0.851562H159.34C157.971 0.851562 156.86 1.9619 156.86 3.33157V190.352C156.86 191.721 157.971 192.832 159.34 192.832H369.9C371.27 192.832 372.38 191.721 372.38 190.352V3.33157C372.38 1.9619 371.27 0.851562 369.9 0.851562Z" fill="#4C80ED"/>
<path opacity="0.6" d="M156.86 18V190.36C156.809 190.952 156.988 191.54 157.361 192.002C157.734 192.465 158.271 192.765 158.86 192.84H370.32C370.92 192.779 371.472 192.485 371.857 192.021C372.243 191.557 372.43 190.961 372.38 190.36V18H156.86Z" fill="white"/>
<path d="M369.82 28.1133H159.41V180.383H369.82V28.1133Z" fill="white"/>
<path opacity="0.6" d="M365.34 12.7098C367.085 12.7098 368.5 11.0041 368.5 8.89985C368.5 6.79564 367.085 5.08984 365.34 5.08984C363.594 5.08984 362.18 6.79564 362.18 8.89985C362.18 11.0041 363.594 12.7098 365.34 12.7098Z" fill="white"/>
<path opacity="0.6" d="M354.99 12.7098C356.735 12.7098 358.15 11.0041 358.15 8.89985C358.15 6.79564 356.735 5.08984 354.99 5.08984C353.245 5.08984 351.83 6.79564 351.83 8.89985C351.83 11.0041 353.245 12.7098 354.99 12.7098Z" fill="white"/>
<path opacity="0.6" d="M347.79 8.89985C347.79 10.9998 346.38 12.6998 344.63 12.6998C342.88 12.6998 341.48 10.9998 341.48 8.89985C341.48 6.79985 342.89 5.08984 344.63 5.08984C346.37 5.08984 347.79 6.78985 347.79 8.89985Z" fill="white"/>
<path d="M204.241 45.8906V85.1606L194.141 97.3406H171.771V45.8906H204.241Z" fill="#4C80ED"/>
<path opacity="0.7" d="M204.241 45.8906V85.1606L194.141 97.3406H171.771V45.8906H204.241Z" fill="white"/>
<path opacity="0.3" d="M204.241 85.1602L194.141 97.3401V85.1602H204.241Z" fill="#4C80ED"/>
<path opacity="0.3" d="M199.211 53.3125H176.811V54.7825H199.211V53.3125Z" fill="#4C80ED"/>
<path opacity="0.3" d="M199.211 58.8906H176.811V60.3606H199.211V58.8906Z" fill="#4C80ED"/>
<path opacity="0.3" d="M199.211 64.4805H176.811V65.9605H199.211V64.4805Z" fill="#4C80ED"/>
<path opacity="0.3" d="M199.211 70.0703H176.811V71.5403H199.211V70.0703Z" fill="#4C80ED"/>
<path opacity="0.3" d="M193.421 75.6602H176.811V77.1402H193.421V75.6602Z" fill="#4C80ED"/>
<path d="M255.741 45.8906V85.1606L245.641 97.3406H223.271V45.8906H255.741Z" fill="#4C80ED"/>
<path opacity="0.7" d="M255.741 45.8906V85.1606L245.641 97.3406H223.271V45.8906H255.741Z" fill="white"/>
<path opacity="0.3" d="M255.741 85.1602L245.641 97.3401V85.1602H255.741Z" fill="#4C80ED"/>
<path opacity="0.3" d="M250.7 53.3125H228.3V54.7825H250.7V53.3125Z" fill="#4C80ED"/>
<path opacity="0.3" d="M250.7 58.8906H228.3V60.3606H250.7V58.8906Z" fill="#4C80ED"/>
<path opacity="0.3" d="M250.7 64.4805H228.3V65.9605H250.7V64.4805Z" fill="#4C80ED"/>
<path opacity="0.3" d="M250.7 70.0703H228.3V71.5403H250.7V70.0703Z" fill="#4C80ED"/>
<path opacity="0.3" d="M244.91 75.6602H228.3V77.1402H244.91V75.6602Z" fill="#4C80ED"/>
<path d="M307.241 45.8906V85.1606L297.141 97.3406H274.771V45.8906H307.241Z" fill="#4C80ED"/>
<path opacity="0.7" d="M307.241 45.8906V85.1606L297.141 97.3406H274.771V45.8906H307.241Z" fill="white"/>
<path opacity="0.3" d="M307.241 85.1602L297.141 97.3401V85.1602H307.241Z" fill="#4C80ED"/>
<path opacity="0.3" d="M302.2 53.3125H279.8V54.7825H302.2V53.3125Z" fill="#4C80ED"/>
<path opacity="0.3" d="M302.2 58.8906H279.8V60.3606H302.2V58.8906Z" fill="#4C80ED"/>
<path opacity="0.3" d="M302.2 64.4805H279.8V65.9605H302.2V64.4805Z" fill="#4C80ED"/>
<path opacity="0.3" d="M302.2 70.0703H279.8V71.5403H302.2V70.0703Z" fill="#4C80ED"/>
<path opacity="0.3" d="M296.41 75.6602H279.8V77.1402H296.41V75.6602Z" fill="#4C80ED"/>
<path d="M358.741 45.8906V85.1606L348.631 97.3406H326.271V45.8906H358.741Z" fill="#4C80ED"/>
<path opacity="0.7" d="M358.741 45.8906V85.1606L348.631 97.3406H326.271V45.8906H358.741Z" fill="white"/>
<path opacity="0.3" d="M358.74 85.1602L348.63 97.3401V85.1602H358.74Z" fill="#4C80ED"/>
<path opacity="0.3" d="M353.7 53.3125H331.3V54.7825H353.7V53.3125Z" fill="#4C80ED"/>
<path opacity="0.3" d="M353.7 58.8906H331.3V60.3606H353.7V58.8906Z" fill="#4C80ED"/>
<path opacity="0.3" d="M353.7 64.4805H331.3V65.9605H353.7V64.4805Z" fill="#4C80ED"/>
<path opacity="0.3" d="M353.7 70.0703H331.3V71.5403H353.7V70.0703Z" fill="#4C80ED"/>
<path opacity="0.3" d="M347.91 75.6602H331.3V77.1402H347.91V75.6602Z" fill="#4C80ED"/>
<path d="M204.241 113.891V153.161L194.141 165.341H171.771V113.891H204.241Z" fill="#4C80ED"/>
<path opacity="0.7" d="M204.241 113.891V153.161L194.141 165.341H171.771V113.891H204.241Z" fill="white"/>
<path opacity="0.3" d="M204.241 153.16L194.141 165.34V153.16H204.241Z" fill="#4C80ED"/>
<path opacity="0.3" d="M199.211 121.312H176.811V122.783H199.211V121.312Z" fill="#4C80ED"/>
<path opacity="0.3" d="M199.211 126.891H176.811V128.361H199.211V126.891Z" fill="#4C80ED"/>
<path opacity="0.3" d="M199.211 132.48H176.811V133.96H199.211V132.48Z" fill="#4C80ED"/>
<path opacity="0.3" d="M199.211 138.07H176.811V139.55H199.211V138.07Z" fill="#4C80ED"/>
<path opacity="0.3" d="M193.421 143.66H176.811V145.13H193.421V143.66Z" fill="#4C80ED"/>
<path d="M255.741 113.891V153.161L245.641 165.341H223.271V113.891H255.741Z" fill="#4C80ED"/>
<path opacity="0.7" d="M255.741 113.891V153.161L245.641 165.341H223.271V113.891H255.741Z" fill="white"/>
<path opacity="0.3" d="M255.741 153.16L245.641 165.34V153.16H255.741Z" fill="#4C80ED"/>
<path opacity="0.3" d="M250.7 121.312H228.3V122.783H250.7V121.312Z" fill="#4C80ED"/>
<path opacity="0.3" d="M250.7 126.891H228.3V128.361H250.7V126.891Z" fill="#4C80ED"/>
<path opacity="0.3" d="M250.7 132.48H228.3V133.96H250.7V132.48Z" fill="#4C80ED"/>
<path opacity="0.3" d="M250.7 138.07H228.3V139.55H250.7V138.07Z" fill="#4C80ED"/>
<path opacity="0.3" d="M244.91 143.66H228.3V145.13H244.91V143.66Z" fill="#4C80ED"/>
<path d="M307.241 113.891V153.161L297.141 165.341H274.771V113.891H307.241Z" fill="#4C80ED"/>
<path opacity="0.7" d="M307.241 113.891V153.161L297.141 165.341H274.771V113.891H307.241Z" fill="white"/>
<path opacity="0.3" d="M307.241 153.16L297.141 165.34V153.16H307.241Z" fill="#4C80ED"/>
<path opacity="0.3" d="M302.2 121.312H279.8V122.783H302.2V121.312Z" fill="#4C80ED"/>
<path opacity="0.3" d="M302.2 126.891H279.8V128.361H302.2V126.891Z" fill="#4C80ED"/>
<path opacity="0.3" d="M302.2 132.48H279.8V133.96H302.2V132.48Z" fill="#4C80ED"/>
<path opacity="0.3" d="M302.2 138.07H279.8V139.55H302.2V138.07Z" fill="#4C80ED"/>
<path opacity="0.3" d="M296.41 143.66H279.8V145.13H296.41V143.66Z" fill="#4C80ED"/>
<path d="M358.741 113.891V153.161L348.631 165.341H326.271V113.891H358.741Z" fill="#4C80ED"/>
<path opacity="0.7" d="M358.741 113.891V153.161L348.631 165.341H326.271V113.891H358.741Z" fill="white"/>
<path opacity="0.3" d="M358.74 153.16L348.63 165.34V153.16H358.74Z" fill="#4C80ED"/>
<path opacity="0.3" d="M353.7 121.312H331.3V122.783H353.7V121.312Z" fill="#4C80ED"/>
<path opacity="0.3" d="M353.7 126.891H331.3V128.361H353.7V126.891Z" fill="#4C80ED"/>
<path opacity="0.3" d="M353.7 132.48H331.3V133.96H353.7V132.48Z" fill="#4C80ED"/>
<path opacity="0.3" d="M353.7 138.07H331.3V139.55H353.7V138.07Z" fill="#4C80ED"/>
<path opacity="0.3" d="M347.91 143.66H331.3V145.13H347.91V143.66Z" fill="#4C80ED"/>
<path d="M165.46 185.633H141.22V184.703H146.69C147.058 184.7 147.413 184.568 147.694 184.331C147.975 184.093 148.165 183.765 148.23 183.403L150.68 168.823L151.16 165.953H159.46L166.89 183.473C166.991 183.709 167.032 183.967 167.009 184.223C166.985 184.478 166.899 184.725 166.757 184.939C166.615 185.153 166.423 185.329 166.196 185.45C165.97 185.571 165.717 185.634 165.46 185.633Z" fill="#4C80ED"/>
<path opacity="0.4" d="M165.46 185.633H141.22V184.703H146.69C147.058 184.7 147.413 184.568 147.694 184.331C147.975 184.093 148.165 183.765 148.23 183.403L150.68 168.823L151.16 165.953H159.46L166.89 183.473C166.991 183.709 167.032 183.967 167.009 184.223C166.985 184.478 166.899 184.725 166.757 184.939C166.615 185.153 166.423 185.329 166.196 185.45C165.97 185.571 165.717 185.634 165.46 185.633Z" fill="white"/>
<path opacity="0.2" d="M165.489 184.7H146.689C147.057 184.697 147.412 184.565 147.694 184.328C147.975 184.09 148.164 183.762 148.229 183.4L150.679 168.82H159.379L165.999 183.93C166.036 184.014 166.051 184.106 166.043 184.198C166.035 184.289 166.005 184.377 165.954 184.454C165.903 184.531 165.834 184.593 165.753 184.636C165.672 184.679 165.581 184.701 165.489 184.7Z" fill="black"/>
<path d="M178.49 171.322H130C129.889 171.327 129.779 171.306 129.679 171.261C129.578 171.216 129.489 171.148 129.419 171.062C129.349 170.977 129.3 170.876 129.276 170.769C129.252 170.661 129.253 170.549 129.28 170.442L136.18 134.002C136.23 133.768 136.355 133.555 136.535 133.397C136.715 133.239 136.941 133.142 137.18 133.122H185.66C185.77 133.117 185.879 133.137 185.98 133.182C186.081 133.228 186.169 133.296 186.238 133.382C186.307 133.467 186.355 133.568 186.378 133.676C186.401 133.784 186.398 133.895 186.37 134.002L179.49 170.432C179.441 170.668 179.317 170.882 179.137 171.043C178.957 171.203 178.73 171.301 178.49 171.322Z" fill="#4C80ED"/>
<path opacity="0.4" d="M178.49 171.322H130C129.889 171.327 129.779 171.306 129.679 171.261C129.578 171.216 129.489 171.148 129.419 171.062C129.349 170.977 129.3 170.876 129.276 170.769C129.252 170.661 129.253 170.549 129.28 170.442L136.18 134.002C136.23 133.768 136.355 133.555 136.535 133.397C136.715 133.239 136.941 133.142 137.18 133.122H185.66C185.77 133.117 185.879 133.137 185.98 133.182C186.081 133.228 186.169 133.296 186.238 133.382C186.307 133.467 186.355 133.568 186.378 133.676C186.401 133.784 186.398 133.895 186.37 134.002L179.49 170.432C179.441 170.668 179.317 170.882 179.137 171.043C178.957 171.203 178.73 171.301 178.49 171.322Z" fill="white"/>
<path d="M177.49 171.322H129C128.889 171.327 128.779 171.306 128.679 171.261C128.578 171.216 128.489 171.148 128.419 171.062C128.349 170.977 128.3 170.876 128.276 170.769C128.252 170.661 128.253 170.549 128.28 170.442L135.18 134.002C135.23 133.768 135.355 133.555 135.535 133.397C135.715 133.239 135.941 133.142 136.18 133.122H184.66C184.77 133.117 184.879 133.137 184.98 133.182C185.081 133.228 185.169 133.296 185.238 133.382C185.307 133.467 185.355 133.568 185.378 133.676C185.401 133.784 185.398 133.895 185.37 134.002L178.49 170.432C178.441 170.668 178.317 170.882 178.137 171.043C177.957 171.203 177.73 171.301 177.49 171.322Z" fill="#263238"/>
<path d="M176.849 169.081H130.489L136.869 135.371H183.219L176.849 169.081Z" fill="#4C80ED"/>
<path d="M96.0498 185.633V184.493L114.71 180.723H151.22C151.87 180.723 152.493 180.981 152.952 181.44C153.412 181.9 153.67 182.523 153.67 183.173C153.67 183.823 153.412 184.448 152.953 184.909C152.494 185.37 151.871 185.63 151.22 185.633H96.0498Z" fill="#4C80ED"/>
<path opacity="0.4" d="M153.67 183.183C153.671 183.831 153.416 184.453 152.96 184.913C152.497 185.372 151.872 185.631 151.22 185.633H96.0498V184.503L114.72 180.723H151.22C151.542 180.723 151.862 180.786 152.16 180.91C152.458 181.034 152.728 181.215 152.956 181.444C153.183 181.672 153.364 181.944 153.486 182.242C153.609 182.54 153.671 182.86 153.67 183.183Z" fill="white"/>
<path opacity="0.4" d="M153.67 183.183C153.671 183.831 153.416 184.453 152.96 184.913C152.497 185.372 151.872 185.631 151.22 185.633H129.05V184.503L147.72 180.723H151.22C151.542 180.723 151.862 180.786 152.16 180.91C152.458 181.034 152.728 181.215 152.956 181.444C153.183 181.672 153.364 181.944 153.486 182.242C153.609 182.54 153.671 182.86 153.67 183.183Z" fill="white"/>
<path d="M167.01 316.42H172.01L180.98 191.48H174.35L167.01 316.42Z" fill="#263238"/>
<path opacity="0.1" d="M167.01 316.424H172.01L180.54 197.684L180.98 191.684H174.35L174 197.684L167.01 316.424Z" fill="white"/>
<path opacity="0.2" d="M174 197.384H180.54L180.98 191.684H174.35L174 197.384Z" fill="black"/>
<path d="M130.36 316.42H135.35L136.17 191.48H129.54L130.36 316.42Z" fill="#263238"/>
<path opacity="0.1" d="M129.54 191.684L129.67 211.844L130.35 316.424H135.35L136.03 211.844L136.16 191.684H129.54Z" fill="white"/>
<path opacity="0.2" d="M129.54 191.684L129.67 212.064H136.03L136.16 191.684H129.54Z" fill="black"/>
<path d="M77.3291 316.42H82.3191L91.2991 191.48H84.6691L77.3291 316.42Z" fill="#263238"/>
<path opacity="0.1" d="M77.3193 316.424H82.3193L90.8593 197.684L91.2993 191.684H84.6693L84.3093 197.684L77.3193 316.424Z" fill="white"/>
<path opacity="0.2" d="M84.3096 197.384H90.8596L91.2996 191.684H84.6696L84.3096 197.384Z" fill="black"/>
<path d="M224.15 316.42H229.14L221.8 191.48H215.18L224.15 316.42Z" fill="#263238"/>
<path opacity="0.1" d="M215.18 191.684L215.62 197.684L224.15 316.424H229.14L222.16 197.684L221.8 191.684H215.18Z" fill="white"/>
<path opacity="0.2" d="M221.8 191.684H215.18L215.62 197.384H222.16L221.8 191.684Z" fill="black"/>
<path d="M224.89 194.602L81.5798 194.602C81.2961 194.602 81.0153 194.546 80.7532 194.437C80.4912 194.329 80.253 194.17 80.0524 193.969C79.8519 193.768 79.6928 193.53 79.5842 193.268C79.4757 193.006 79.4198 192.725 79.4198 192.442V188.342L227.05 188.342V192.442C227.05 192.725 226.994 193.006 226.885 193.268C226.777 193.53 226.618 193.768 226.417 193.969C226.217 194.17 225.978 194.329 225.716 194.437C225.454 194.546 225.173 194.602 224.89 194.602Z" fill="#4C80ED"/>
<path opacity="0.4" d="M224.89 194.602L81.5798 194.602C81.2961 194.602 81.0153 194.546 80.7532 194.437C80.4912 194.329 80.253 194.17 80.0524 193.969C79.8519 193.768 79.6928 193.53 79.5842 193.268C79.4757 193.006 79.4198 192.725 79.4198 192.442V188.342L227.05 188.342V192.442C227.05 192.725 226.994 193.006 226.885 193.268C226.777 193.53 226.618 193.768 226.417 193.969C226.217 194.17 225.978 194.329 225.716 194.437C225.454 194.546 225.173 194.602 224.89 194.602Z" fill="white"/>
<path opacity="0.2" d="M79.4098 191.473L227.05 191.473V188.343L79.4098 188.343V191.473Z" fill="black"/>
<path d="M76.3196 189.161H230.15C230.616 189.161 231.064 188.975 231.394 188.645C231.724 188.315 231.91 187.867 231.91 187.401C231.91 186.934 231.724 186.486 231.394 186.156C231.064 185.826 230.616 185.641 230.15 185.641H76.3196C75.8528 185.641 75.4051 185.826 75.0751 186.156C74.745 186.486 74.5596 186.934 74.5596 187.401C74.5596 187.867 74.745 188.315 75.0751 188.645C75.4051 188.975 75.8528 189.161 76.3196 189.161Z" fill="#4C80ED"/>
<path opacity="0.4" d="M76.3196 189.161H230.15C230.616 189.161 231.064 188.975 231.394 188.645C231.724 188.315 231.91 187.867 231.91 187.401C231.91 186.934 231.724 186.486 231.394 186.156C231.064 185.826 230.616 185.641 230.15 185.641H76.3196C75.8528 185.641 75.4051 185.826 75.0751 186.156C74.745 186.486 74.5596 186.934 74.5596 187.401C74.5596 187.867 74.745 188.315 75.0751 188.645C75.4051 188.975 75.8528 189.161 76.3196 189.161Z" fill="white"/>
<path opacity="0.3" d="M139.44 154.262C139.22 154.26 139.004 154.21 138.805 154.115C138.607 154.02 138.433 153.883 138.293 153.714C138.154 153.544 138.054 153.345 138 153.133C137.945 152.92 137.939 152.698 137.98 152.482L138.6 149.292C138.687 148.857 138.922 148.465 139.264 148.183C139.606 147.901 140.036 147.745 140.48 147.742H166.48C166.7 147.742 166.918 147.791 167.117 147.886C167.316 147.981 167.491 148.12 167.63 148.292C167.772 148.46 167.874 148.658 167.927 148.871C167.981 149.084 167.985 149.307 167.94 149.522L167.32 152.712C167.236 153.147 167.004 153.54 166.663 153.823C166.321 154.105 165.893 154.261 165.45 154.262H139.44Z" fill="white"/>
<path d="M165.45 153.762H139.45C139.302 153.765 139.155 153.734 139.021 153.673C138.886 153.612 138.766 153.522 138.671 153.409C138.575 153.296 138.506 153.163 138.467 153.02C138.429 152.877 138.423 152.728 138.45 152.582L139.08 149.382C139.141 149.061 139.312 148.771 139.564 148.563C139.816 148.355 140.133 148.241 140.46 148.242H166.46C166.608 148.24 166.755 148.27 166.889 148.331C167.024 148.393 167.144 148.483 167.239 148.596C167.335 148.709 167.404 148.841 167.442 148.984C167.481 149.127 167.487 149.277 167.46 149.422L166.84 152.622C166.777 152.944 166.604 153.234 166.35 153.443C166.096 153.651 165.778 153.764 165.45 153.762Z" fill="white"/>
<path d="M143.847 151.746C144.356 151.017 144.3 150.098 143.721 149.693C143.141 149.287 142.259 149.55 141.749 150.278C141.239 151.007 141.296 151.926 141.875 152.331C142.454 152.736 143.337 152.474 143.847 151.746Z" fill="#263238"/>
<path d="M148.23 151.002C148.158 151.402 147.957 151.766 147.656 152.04C147.356 152.313 146.974 152.479 146.57 152.512C146.39 152.507 146.215 152.46 146.057 152.375C145.899 152.29 145.763 152.17 145.659 152.023C145.555 151.877 145.487 151.709 145.459 151.532C145.432 151.354 145.445 151.173 145.5 151.002C145.573 150.603 145.775 150.24 146.074 149.967C146.374 149.694 146.756 149.527 147.16 149.492C147.34 149.496 147.516 149.541 147.675 149.626C147.835 149.71 147.972 149.83 148.076 149.977C148.18 150.124 148.248 150.293 148.275 150.471C148.301 150.649 148.286 150.831 148.23 151.002Z" fill="#263238"/>
<path d="M152.3 151.002C152.227 151.401 152.025 151.765 151.725 152.038C151.425 152.31 151.044 152.477 150.64 152.512C150.46 152.508 150.283 152.462 150.124 152.378C149.965 152.294 149.827 152.174 149.722 152.027C149.618 151.881 149.548 151.712 149.52 151.534C149.492 151.356 149.506 151.174 149.56 151.002C149.635 150.603 149.839 150.239 150.141 149.966C150.442 149.693 150.825 149.527 151.23 149.492C151.409 149.498 151.585 149.545 151.743 149.63C151.901 149.714 152.037 149.835 152.141 149.981C152.244 150.127 152.313 150.296 152.34 150.473C152.368 150.65 152.354 150.831 152.3 151.002Z" fill="#263238"/>
<path d="M156.049 151.738C156.559 151.009 156.502 150.09 155.923 149.685C155.343 149.28 154.461 149.542 153.951 150.271C153.441 150.999 153.498 151.918 154.077 152.323C154.657 152.729 155.539 152.466 156.049 151.738Z" fill="#263238"/>
<path d="M160.43 151.002C160.355 151.402 160.151 151.766 159.849 152.039C159.548 152.311 159.165 152.478 158.76 152.512C158.581 152.507 158.405 152.46 158.247 152.375C158.089 152.29 157.953 152.17 157.849 152.023C157.746 151.877 157.677 151.709 157.65 151.532C157.622 151.354 157.636 151.173 157.69 151.002C157.765 150.604 157.967 150.241 158.267 149.969C158.566 149.696 158.947 149.529 159.35 149.492C159.53 149.496 159.707 149.542 159.866 149.626C160.025 149.71 160.163 149.831 160.268 149.977C160.372 150.124 160.442 150.293 160.47 150.47C160.498 150.648 160.484 150.83 160.43 151.002Z" fill="#263238"/>
<path d="M164.173 151.753C164.683 151.025 164.626 150.106 164.047 149.7C163.467 149.295 162.585 149.558 162.075 150.286C161.565 151.015 161.622 151.934 162.201 152.339C162.781 152.744 163.663 152.482 164.173 151.753Z" fill="#263238"/>
<path opacity="0.3" d="M169.079 154.262C168.911 154.264 168.745 154.228 168.593 154.157C168.44 154.086 168.306 153.982 168.199 153.852C168.086 153.715 168.005 153.553 167.966 153.379C167.926 153.206 167.927 153.025 167.969 152.852L168.759 148.852C168.829 148.524 169.007 148.23 169.265 148.016C169.522 147.801 169.845 147.68 170.179 147.672H174.179C174.347 147.67 174.514 147.706 174.666 147.777C174.818 147.848 174.953 147.952 175.059 148.082C175.173 148.219 175.253 148.381 175.293 148.555C175.333 148.728 175.332 148.909 175.289 149.082L174.499 153.082C174.43 153.41 174.252 153.704 173.994 153.918C173.737 154.133 173.414 154.254 173.079 154.262H169.079Z" fill="white"/>
<path d="M169.08 153.763H173.08C173.294 153.752 173.5 153.672 173.666 153.535C173.831 153.398 173.948 153.212 174 153.003L174.79 149.003C174.815 148.909 174.818 148.811 174.798 148.716C174.778 148.622 174.736 148.533 174.676 148.457C174.616 148.381 174.539 148.32 174.451 148.28C174.363 148.239 174.267 148.22 174.17 148.223H170.17C169.951 148.233 169.741 148.315 169.573 148.456C169.405 148.597 169.288 148.789 169.24 149.003L168.45 153.003C168.428 153.096 168.428 153.193 168.45 153.286C168.472 153.379 168.515 153.466 168.576 153.539C168.637 153.613 168.714 153.671 168.802 153.71C168.889 153.749 168.984 153.767 169.08 153.763Z" fill="#263238"/>
<path d="M171.11 152.752C171.079 152.753 171.049 152.747 171.022 152.735C170.994 152.723 170.969 152.705 170.95 152.682C170.914 152.624 170.901 152.555 170.914 152.488C170.927 152.421 170.965 152.362 171.02 152.322L172.61 151.002L171.55 149.682C171.511 149.625 171.497 149.555 171.51 149.487C171.523 149.42 171.563 149.36 171.62 149.322C171.668 149.278 171.73 149.254 171.795 149.254C171.859 149.254 171.922 149.278 171.97 149.322L173.17 150.822C173.208 150.879 173.222 150.949 173.209 151.016C173.196 151.084 173.157 151.143 173.1 151.182L171.31 152.682C171.253 152.728 171.182 152.753 171.11 152.752Z" fill="#4C80ED"/>
<path d="M172.909 151.25H170.209C170.178 151.251 170.147 151.245 170.119 151.232C170.091 151.219 170.066 151.199 170.047 151.175C170.027 151.151 170.014 151.122 170.007 151.092C170.001 151.062 170.002 151.03 170.009 151C170.025 150.931 170.062 150.869 170.117 150.824C170.171 150.779 170.239 150.753 170.309 150.75H172.999C173.03 150.749 173.061 150.755 173.089 150.768C173.118 150.781 173.142 150.801 173.162 150.825C173.181 150.849 173.195 150.878 173.201 150.908C173.208 150.939 173.207 150.97 173.199 151C173.184 151.067 173.148 151.128 173.096 151.173C173.044 151.218 172.978 151.245 172.909 151.25Z" fill="#4C80ED"/>
<path d="M88 179.111L95 180.161C96.5894 179.656 98.2235 179.304 99.88 179.111C101.677 178.963 103.483 178.963 105.28 179.111C105.28 179.111 108.45 180.301 108.45 183.331C108.45 183.331 101.06 185.331 98.23 184.121L88 183.331V179.111Z" fill="#E4897B"/>
<path opacity="0.2" d="M88 179.111L95 180.161C96.5894 179.656 98.2235 179.304 99.88 179.111C101.677 178.963 103.483 178.963 105.28 179.111C105.28 179.111 108.45 180.301 108.45 183.331C108.45 183.331 101.06 185.331 98.23 184.121L88 183.331V179.111Z" fill="black"/>
<path d="M105.34 131.84C105.449 133.278 105.731 134.699 106.18 136.07C105.813 136.295 105.391 136.415 104.96 136.415C104.53 136.415 104.107 136.295 103.74 136.07L105.34 131.84Z" fill="#AA473D"/>
<path d="M108.07 129.84C107.8 130.49 107.32 130.91 106.99 130.77C106.66 130.63 106.63 130.01 106.89 129.36C107.15 128.71 107.64 128.3 107.97 128.43C108.3 128.56 108.33 129.2 108.07 129.84Z" fill="#263238"/>
<path d="M109.71 127.602C109.651 127.62 109.588 127.62 109.53 127.602C108.998 127.29 108.403 127.101 107.789 127.049C107.174 126.997 106.556 127.084 105.98 127.302C105.893 127.346 105.793 127.354 105.702 127.324C105.61 127.294 105.533 127.229 105.49 127.142C105.446 127.056 105.438 126.956 105.468 126.864C105.498 126.772 105.563 126.696 105.65 126.652C106.335 126.373 107.076 126.258 107.814 126.315C108.551 126.372 109.266 126.601 109.9 126.982C109.941 127.007 109.976 127.04 110.005 127.078C110.033 127.117 110.054 127.161 110.065 127.207C110.076 127.254 110.078 127.302 110.07 127.349C110.062 127.397 110.045 127.442 110.02 127.482C109.983 127.527 109.935 127.562 109.88 127.583C109.826 127.604 109.767 127.611 109.71 127.602Z" fill="#263238"/>
<path d="M103.39 137.282C103.16 137.562 102.93 137.832 102.68 138.082C101.28 139.537 99.4692 140.531 97.4898 140.932C96.9884 141.033 96.4805 141.1 95.9698 141.132C94.625 141.216 93.2783 140.999 92.0276 140.497C90.777 139.996 89.6539 139.222 88.7398 138.232C87.915 137.336 87.282 136.281 86.8798 135.132C85.0898 130.332 86.8798 126.552 89.4698 119.902C90.0457 118.343 91.01 116.957 92.2715 115.875C93.533 114.793 95.0499 114.051 96.6783 113.72C98.3068 113.388 99.9929 113.478 101.577 113.98C103.161 114.483 104.59 115.382 105.73 116.592C110.91 122.052 107.43 132.082 103.39 137.282Z" fill="#E4897B"/>
<path opacity="0.2" d="M97.4902 140.932C96.9888 141.034 96.4809 141.101 95.9702 141.133C94.6254 141.217 93.2787 141 92.028 140.498C90.7774 139.997 89.6543 139.223 88.7402 138.232C89.3827 137.586 90.1053 137.025 90.8902 136.562C93.4648 137.354 95.7564 138.871 97.4902 140.932Z" fill="black"/>
<path d="M75.9297 141.182C76.5897 145.862 86.8297 147.612 86.8297 147.612C86.8297 147.612 91.8297 149.912 92.0897 147.912C89.9997 145.492 89.7697 143.382 90.4897 141.532C90.9674 140.404 91.668 139.383 92.5497 138.532C93.0196 138.044 93.5171 137.583 94.0397 137.152L90.9097 124.332C88.6597 129.232 80.9997 140.482 75.9297 141.182Z" fill="#E4897B"/>
<path d="M105.15 113.001C105.15 113.001 107.34 112.731 109.02 116.811C110.43 120.241 107.1 120.991 107.25 124.641C107.4 128.291 104.05 130.321 104.05 130.321C104.05 130.321 101.25 132.741 98.8602 131.431C98.8602 131.431 95.7402 132.961 94.9202 135.631C94.1002 138.301 89.2702 133.481 84.9202 134.211C84.9202 134.211 81.9802 131.461 82.2002 124.781C82.3665 121.88 83.079 119.037 84.3002 116.401C84.8769 115.005 85.7256 113.738 86.797 112.674C87.8683 111.609 89.1408 110.769 90.5402 110.201C95.5102 107.941 104.22 109.621 105.15 113.001Z" fill="#263238"/>
<path d="M98.2598 129.421C98.1086 130.086 98.1074 130.777 98.2562 131.443C98.4049 132.109 98.6999 132.733 99.1198 133.271C100.18 134.431 101.89 132.961 102.58 130.931C103.18 129.121 103.39 126.291 101.83 125.931C100.27 125.571 98.5898 127.471 98.2598 129.421Z" fill="#E4897B"/>
<path d="M99.36 145.049C97.9267 149.049 96.6467 152.883 95.52 156.549C94.8 158.829 94.14 161.059 93.52 163.209C93.0133 165.016 92.54 166.769 92.1 168.469C91.89 169.289 91.68 170.099 91.48 170.899C90.38 175.309 89.48 179.329 88.79 182.899C87.6246 188.472 86.76 194.104 86.2 199.769L47 194.829C48.36 188.089 49.42 182.199 50.9 175.829C51.72 172.349 52.65 168.729 53.9 164.759C54.74 161.909 55.72 158.879 56.9 155.589C60.84 144.289 64.47 141.159 64.47 141.159C79.46 138.759 99.36 145.049 99.36 145.049Z" fill="#263238"/>
<path d="M112.41 179.841L119.41 180.891C121 180.386 122.634 180.034 124.29 179.841C126.09 179.694 127.9 179.694 129.7 179.841C129.7 179.841 132.86 181.031 132.86 184.061C132.86 184.061 125.48 186.061 122.64 184.851L112.42 184.061L112.41 179.841Z" fill="#E4897B"/>
<path d="M69.0801 309.112L76.3901 309.242L80.0301 292.392L72.7301 292.262L69.0801 309.112Z" fill="#EBB376"/>
<path opacity="0.2" d="M72.7297 292.262L80.0297 292.402L77.9497 302.032L70.7197 301.552L72.7297 292.262Z" fill="black"/>
<path d="M92.5698 267.85C89.7844 278.573 86.225 289.081 81.9198 299.29L68.5898 298.29C68.5898 298.29 74.0598 276.92 76.0398 257.34C77.2698 245.26 77.1598 235.26 73.6198 234.49C71.3998 234 66.1898 234.01 59.5098 234.17V209.27C78.2398 213.12 96.8798 220.37 98.2998 226.19C100.28 234.38 96.8198 251.72 92.5698 267.85Z" fill="#4C80ED"/>
<path d="M67.1699 298.89L83.0499 299.95L85.3899 293.08L67.8899 292.27L67.1699 298.89Z" fill="#4C80ED"/>
<path opacity="0.2" d="M67.1699 298.89L83.0499 299.95L85.3899 293.08L67.8899 292.27L67.1699 298.89Z" fill="white"/>
<path d="M77.4895 308.882H77.6395C77.6395 308.882 77.8095 308.932 77.8295 308.952H77.8895C78.5071 309.148 79.1442 309.275 79.7895 309.332C80.2703 309.421 80.7671 309.325 81.1795 309.062C81.3103 308.948 81.4054 308.799 81.4533 308.632C81.5012 308.465 81.4999 308.288 81.4495 308.122C81.4335 308.014 81.3916 307.91 81.3271 307.822C81.2627 307.733 81.1777 307.661 81.0795 307.612C80.3889 307.502 79.6815 307.636 79.0795 307.992C79.5097 307.538 79.7649 306.946 79.7995 306.322C79.7701 306.175 79.6939 306.04 79.5822 305.939C79.4705 305.839 79.3293 305.776 79.1795 305.762C78.8952 305.72 78.6055 305.788 78.3695 305.952C77.5995 306.612 77.4795 308.682 77.4795 308.802L77.4895 308.882ZM78.2795 308.462L78.1295 308.542C78.0821 307.752 78.2965 306.968 78.7395 306.312C78.7877 306.264 78.8456 306.226 78.9094 306.202C78.9732 306.178 79.0414 306.168 79.1095 306.172H79.1995C79.4395 306.172 79.4895 306.332 79.4995 306.432C79.3451 307.232 78.913 307.951 78.2795 308.462ZM78.3795 308.822C79.2595 308.332 80.5095 307.822 80.9795 308.012C81.0262 308.037 81.0662 308.072 81.0959 308.116C81.1255 308.159 81.144 308.21 81.1495 308.262C81.179 308.367 81.1797 308.478 81.1516 308.584C81.1234 308.69 81.0674 308.786 80.9895 308.862C80.6295 309.182 79.6695 309.162 78.3795 308.822Z" fill="#4C80ED"/>
<path d="M77.3196 308.001L69.1295 307.491C68.9931 307.477 68.8566 307.517 68.7498 307.604C68.6431 307.69 68.5747 307.815 68.5596 307.951L67.7596 314.401C67.7375 314.74 67.8501 315.074 68.0729 315.331C68.2957 315.587 68.6108 315.745 68.9495 315.771C71.8095 315.901 73.1796 315.821 76.7796 316.021C79.975 316.35 83.1898 316.45 86.3995 316.321C89.3995 316.031 89.0695 313.021 87.7595 312.881C84.6295 312.521 80.4995 310.231 78.5395 308.491C78.1997 308.195 77.7698 308.022 77.3196 308.001Z" fill="#263238"/>
<path opacity="0.2" d="M92.5698 267.85C87.5698 264.7 81.7598 260.99 76.0398 257.32C77.2698 245.24 77.1598 235.24 73.6198 234.47C71.3998 233.98 66.1898 233.99 59.5098 234.15V209.27C78.2398 213.12 96.8798 220.37 98.2998 226.19C100.28 234.38 96.8198 251.72 92.5698 267.85Z" fill="black"/>
<path d="M111.81 309.112L119.12 309.242L122.76 292.392L115.46 292.262L111.81 309.112Z" fill="#EBB376"/>
<path opacity="0.2" d="M115.46 292.262L122.76 292.402L120.68 302.032L113.45 301.552L115.46 292.262Z" fill="black"/>
<path d="M85.27 206.832L86.45 197.392L48.28 191.102C48.28 191.102 35.79 215.842 41.9 228.002C47.51 239.122 107.17 232.492 116.35 234.502C125.53 236.512 111.35 298.312 111.35 298.312L124.69 299.312C124.69 299.312 145.29 243.712 141.06 226.222C139.18 218.572 107.73 208.462 85.27 206.832Z" fill="#4C80ED"/>
<path d="M109.9 298.89L125.78 299.95L128.12 293.08L110.62 292.27L109.9 298.89Z" fill="#4C80ED"/>
<path opacity="0.2" d="M109.9 298.89L125.78 299.95L128.12 293.08L110.62 292.27L109.9 298.89Z" fill="white"/>
<path d="M120.22 308.882H120.37C120.37 308.882 120.54 308.932 120.56 308.952H120.62C121.238 309.148 121.875 309.275 122.52 309.332C123.001 309.421 123.498 309.325 123.91 309.062C124.041 308.948 124.136 308.799 124.184 308.632C124.232 308.465 124.23 308.288 124.18 308.122C124.164 308.014 124.122 307.91 124.058 307.822C123.993 307.733 123.908 307.661 123.81 307.612C123.119 307.502 122.412 307.636 121.81 307.992C122.24 307.538 122.495 306.946 122.53 306.322C122.501 306.175 122.424 306.04 122.313 305.939C122.201 305.839 122.06 305.776 121.91 305.762C121.626 305.72 121.336 305.788 121.1 305.952C120.33 306.612 120.21 308.682 120.21 308.802L120.22 308.882ZM121.01 308.462L120.86 308.542C120.813 307.752 121.027 306.968 121.47 306.312C121.518 306.264 121.576 306.226 121.64 306.202C121.704 306.178 121.772 306.168 121.84 306.172H121.93C122.17 306.172 122.22 306.332 122.23 306.432C122.077 307.235 121.641 307.955 121 308.462H121.01ZM121.11 308.822C121.99 308.332 123.24 307.822 123.71 308.012C123.757 308.037 123.797 308.072 123.826 308.116C123.856 308.159 123.874 308.21 123.88 308.262C123.909 308.367 123.91 308.478 123.882 308.584C123.854 308.69 123.798 308.786 123.72 308.862C123.36 309.182 122.4 309.162 121.11 308.822Z" fill="#4C80ED"/>
<path d="M120.05 308.001L111.86 307.491C111.724 307.477 111.587 307.517 111.48 307.604C111.374 307.69 111.305 307.815 111.29 307.951L110.49 314.401C110.468 314.74 110.581 315.074 110.803 315.331C111.026 315.587 111.341 315.745 111.68 315.771C114.54 315.901 115.91 315.821 119.51 316.021C122.705 316.35 125.92 316.45 129.13 316.321C132.18 316.031 131.81 313.021 130.49 312.881C127.36 312.521 123.23 310.231 121.27 308.491C120.93 308.195 120.5 308.022 120.05 308.001Z" fill="#263238"/>
<path d="M46.8799 195.401L64.5599 197.721L65.1399 195.111L47.4199 192.531L46.8799 195.401Z" fill="black"/>
<path d="M66.6096 195.129L66.3896 197.719L82.7397 199.969V197.399L66.6096 195.129Z" fill="black"/>
<path d="M83.75 197.551V199.971L86.13 200.281V197.941L83.75 197.551Z" fill="black"/>
<path opacity="0.2" d="M95.5196 156.55C94.7996 158.83 94.1396 161.06 93.5196 163.21C93.0129 165.016 92.5396 166.77 92.0996 168.47C90.8696 161.77 93.0996 153.77 93.0996 153.77L95.5196 156.55Z" fill="black"/>
<path d="M99.36 145C102.55 145.65 103.6 170.44 103.74 173.08C103.88 175.72 119.4 180.85 119.4 180.85V184.46C119.4 184.46 102.76 183.3 98.87 181.71C94.98 180.12 94 157.16 94 157.16L99.36 145Z" fill="#E4897B"/>
<path d="M99.3601 145C102.29 145.91 103.74 162.26 103.74 162.26L94.6801 166L92.4301 156.91C92.4301 156.91 91.7901 155.06 93.0501 151.16C94.8801 145.47 99.3601 145 99.3601 145Z" fill="#263238"/>
<path d="M31.7791 226.52H103.999C106.097 226.52 108.109 227.353 109.592 228.836C111.076 230.32 111.909 232.332 111.909 234.43V238.66H23.8691V234.43C23.8691 232.332 24.7025 230.32 26.1859 228.836C27.6693 227.353 29.6813 226.52 31.7791 226.52Z" fill="#4C80ED"/>
<path d="M55.2695 196.449H103.76C104.344 196.449 104.921 196.581 105.447 196.835C105.974 197.089 106.436 197.459 106.799 197.916C107.163 198.374 107.418 198.908 107.546 199.478C107.674 200.048 107.672 200.64 107.54 201.209L98.8695 238.659H96.8695L104.25 205.839C104.379 205.272 104.379 204.683 104.249 204.116C104.119 203.548 103.863 203.018 103.5 202.563C103.136 202.109 102.675 201.742 102.151 201.49C101.626 201.238 101.051 201.108 100.47 201.109H56.2595L55.2695 196.449Z" fill="#263238"/>
<path d="M73.6292 240V271.65C73.6292 272.138 73.4353 272.606 73.0903 272.951C72.7452 273.296 72.2772 273.49 71.7892 273.49H63.9992C63.5112 273.49 63.0432 273.296 62.6981 272.951C62.353 272.606 62.1592 272.138 62.1592 271.65V240H73.6292Z" fill="#263238"/>
<path d="M30.7893 313.059C30.7893 312.395 30.5923 311.745 30.2231 311.193C29.8539 310.64 29.3291 310.209 28.7152 309.955C28.1012 309.701 27.4256 309.634 26.7738 309.764C26.1221 309.893 25.5234 310.213 25.0535 310.683C24.5836 311.153 24.2635 311.752 24.1339 312.404C24.0043 313.056 24.0708 313.731 24.3251 314.345C24.5794 314.959 25.0101 315.484 25.5626 315.853C26.1152 316.222 26.7648 316.419 27.4293 316.419C28.3205 316.419 29.1751 316.065 29.8052 315.435C30.4353 314.805 30.7893 313.95 30.7893 313.059Z" fill="#263238"/>
<path opacity="0.2" d="M29.11 313.059C29.11 312.727 29.0115 312.402 28.8269 312.126C28.6423 311.849 28.3799 311.634 28.0729 311.507C27.7659 311.38 27.4281 311.346 27.1023 311.411C26.7764 311.476 26.477 311.636 26.2421 311.871C26.0071 312.106 25.8471 312.405 25.7823 312.731C25.7175 313.057 25.7507 313.395 25.8779 313.702C26.005 314.009 26.2204 314.271 26.4966 314.456C26.7729 314.64 27.0977 314.739 27.43 314.739C27.8748 314.736 28.3006 314.558 28.615 314.244C28.9295 313.929 29.1074 313.504 29.11 313.059Z" fill="white"/>
<path d="M111.74 313.06C111.742 312.392 111.546 311.739 111.176 311.184C110.807 310.628 110.28 310.194 109.664 309.938C109.048 309.682 108.37 309.614 107.715 309.744C107.06 309.874 106.459 310.195 105.987 310.667C105.515 311.139 105.194 311.74 105.064 312.395C104.935 313.049 105.002 313.728 105.258 314.344C105.515 314.96 105.948 315.486 106.504 315.856C107.06 316.225 107.713 316.422 108.38 316.42C109.27 316.417 110.123 316.062 110.753 315.433C111.382 314.803 111.737 313.95 111.74 313.06Z" fill="#263238"/>
<path opacity="0.2" d="M110.059 313.059C110.059 312.727 109.961 312.402 109.776 312.126C109.591 311.849 109.329 311.634 109.022 311.507C108.715 311.38 108.377 311.346 108.051 311.411C107.726 311.476 107.426 311.636 107.191 311.871C106.956 312.106 106.796 312.405 106.732 312.731C106.667 313.057 106.7 313.395 106.827 313.702C106.954 314.009 107.17 314.271 107.446 314.456C107.722 314.64 108.047 314.739 108.379 314.739C108.824 314.736 109.25 314.558 109.564 314.244C109.879 313.929 110.057 313.504 110.059 313.059Z" fill="white"/>
<path d="M70.6797 298.301V262.121H65.1197V298.301C43.4597 298.861 30.2897 306.431 27.6597 308.091C27.5045 308.183 27.3769 308.315 27.2907 308.474C27.2044 308.632 27.1626 308.811 27.1697 308.991V311.991C27.1684 312.131 27.1948 312.27 27.2475 312.4C27.3002 312.53 27.3781 312.648 27.4766 312.747C27.5752 312.847 27.6925 312.926 27.8218 312.979C27.951 313.033 28.0897 313.061 28.2297 313.061C28.4169 313.059 28.6004 313.009 28.7618 312.914C28.9233 312.819 29.057 312.684 29.1497 312.521L30.4397 310.261C41.6618 306.683 53.3431 304.749 65.1197 304.521V310.521C65.1197 310.702 65.1555 310.881 65.225 311.048C65.2944 311.215 65.3962 311.366 65.5245 311.493C65.6528 311.621 65.805 311.721 65.9724 311.79C66.1397 311.858 66.319 311.892 66.4997 311.891H69.3097C69.6731 311.891 70.0215 311.747 70.2785 311.49C70.5354 311.233 70.6797 310.884 70.6797 310.521V304.521C82.4596 304.748 94.1444 306.682 105.37 310.261L106.65 312.521C106.743 312.685 106.879 312.822 107.042 312.916C107.205 313.011 107.391 313.061 107.58 313.061C107.862 313.058 108.131 312.945 108.33 312.744C108.528 312.544 108.64 312.273 108.64 311.991V308.991C108.647 308.811 108.605 308.632 108.519 308.474C108.433 308.315 108.305 308.183 108.15 308.091C105.51 306.431 92.3497 298.861 70.6797 298.301Z" fill="#263238"/>
<path d="M69.7301 309.691H66.0801V316.421H69.7301V309.691Z" fill="#263238"/>
<path opacity="0.2" d="M73.6294 239.973H62.1895V253.123H73.6294V239.973Z" fill="black"/>
<path d="M114.35 236.711V240.491C114.35 240.746 114.299 240.997 114.202 241.232C114.104 241.467 113.961 241.68 113.781 241.86C113.6 242.039 113.386 242.181 113.151 242.277C112.916 242.374 112.664 242.423 112.41 242.421H23.4095C23.1557 242.423 22.9041 242.374 22.6694 242.277C22.4346 242.181 22.2213 242.038 22.0418 241.859C21.8624 241.679 21.7203 241.466 21.6237 241.231C21.5272 240.997 21.4782 240.745 21.4795 240.491V236.711C21.4795 236.199 21.6829 235.708 22.0448 235.347C22.4067 234.985 22.8977 234.781 23.4095 234.781H112.41C112.922 234.781 113.414 234.984 113.778 235.346C114.141 235.708 114.347 236.198 114.35 236.711Z" fill="#263238"/>
<path d="M73.4 238.66H21.47C21.47 238.66 5 211.22 5 165.88V149.23C5.00265 145.943 6.31025 142.791 8.63541 140.468C10.9606 138.145 14.113 136.84 17.4 136.84H39.4C42.6196 136.838 45.7133 138.09 48.026 140.33C50.3387 142.57 51.6887 145.622 51.79 148.84C52.42 172.24 55.86 222.83 73.4 238.66Z" fill="#263238"/>
<path opacity="0.2" d="M62 238.66H23.81C23.0879 238.663 22.379 238.467 21.7614 238.093C21.1438 237.719 20.6415 237.181 20.31 236.54C16.55 229.3 5 203.87 5 165.88V149.23C5 145.944 6.30537 142.792 8.62895 140.469C10.9525 138.145 14.104 136.84 17.39 136.84H36.39C39.6096 136.838 42.7033 138.09 45.016 140.33C47.3287 142.57 48.6787 145.622 48.78 148.84C49.35 169.71 52.15 212.32 65.25 232.45C65.6458 233.047 65.8741 233.739 65.9112 234.454C65.9482 235.169 65.7926 235.881 65.4605 236.515C65.1285 237.15 64.6322 237.684 64.0235 238.061C63.4148 238.438 62.716 238.645 62 238.66Z" fill="white"/>
<path opacity="0.2" d="M114.35 236.711V240.491C114.35 241.003 114.147 241.494 113.785 241.856C113.423 242.218 112.932 242.421 112.42 242.421H72.5299C72.1876 242.423 71.8485 242.356 71.5319 242.226C71.2153 242.096 70.9275 241.905 70.685 241.663C70.4425 241.422 70.2501 241.135 70.1188 240.819C69.9875 240.502 69.9199 240.164 69.9199 239.821V237.391C69.9199 236.699 70.1949 236.035 70.6844 235.546C71.1738 235.056 71.8377 234.781 72.5299 234.781H112.41C112.923 234.781 113.415 234.984 113.778 235.346C114.142 235.708 114.347 236.198 114.35 236.711Z" fill="black"/>
<path d="M21.4492 135.371L24.7492 131.051C24.7492 131.051 38.8392 131.691 39.1792 136.841C39.5192 141.991 21.4492 135.371 21.4492 135.371Z" fill="#4C80ED"/>
<path d="M12.1891 148.301C12.1891 148.301 13.0491 171.201 12.1891 230.301C12.1891 232.301 4.72911 232.221 4.18911 230.301C2.39911 223.571 4.18911 169.831 4.18911 169.831" fill="#4C80ED"/>
<path d="M4.35938 230.602L11.9494 230.862V234.652L4.35938 234.262V230.602Z" fill="#4C80ED"/>
<path opacity="0.2" d="M12.1891 148.301C12.1891 148.301 13.0491 171.201 12.1891 230.301C12.1891 232.301 4.72911 232.221 4.18911 230.301C2.39911 223.571 4.18911 169.831 4.18911 169.831" fill="white"/>
<path d="M0.609593 218.221C0.199593 207.321 -1.29041 157.221 4.96959 140.621C4.96959 140.621 10.8596 133.141 30.7896 133.141C50.7196 133.141 56.7196 147.291 56.7196 147.291C56.7196 147.291 57.5796 170.181 56.7196 229.291C56.7196 231.291 49.2596 231.221 48.7196 229.291C46.9296 222.571 48.7196 168.821 48.7196 168.821L44.7196 217.721C44.705 217.885 44.6571 218.044 44.5788 218.189C44.5005 218.333 44.3935 218.461 44.2644 218.563C44.1352 218.665 43.9865 218.739 43.8275 218.782C43.6685 218.825 43.5025 218.834 43.3396 218.811C37.0496 217.811 9.33959 213.921 2.00959 218.921C1.87679 219.006 1.72405 219.055 1.56637 219.064C1.4087 219.073 1.25152 219.04 1.11028 218.969C0.969048 218.899 0.848616 218.792 0.760831 218.661C0.673045 218.53 0.620925 218.378 0.609593 218.221Z" fill="#4C80ED"/>
<path d="M48.8896 229.59L56.4797 229.85V233.64L48.8896 233.25V229.59Z" fill="#4C80ED"/>
<path d="M43.7496 218.862L43.1496 222.862C43.1496 222.862 12.2196 216.122 2.19961 223.302L1.59961 218.872C1.59961 218.872 9.33961 211.732 43.7496 218.862Z" fill="#4C80ED"/>
<path opacity="0.4" d="M0.609593 218.221C0.199593 207.321 -1.29041 157.221 4.96959 140.621C4.96959 140.621 10.8596 133.141 30.7896 133.141C50.7196 133.141 56.7196 147.291 56.7196 147.291C56.7196 147.291 57.5796 170.181 56.7196 229.291C56.7196 231.291 49.2596 231.221 48.7196 229.291C46.9296 222.571 48.7196 168.821 48.7196 168.821L44.7196 217.721C44.705 217.885 44.6571 218.044 44.5788 218.189C44.5005 218.333 44.3935 218.461 44.2644 218.563C44.1352 218.665 43.9865 218.739 43.8275 218.782C43.6685 218.825 43.5025 218.834 43.3396 218.811C37.0496 217.811 9.33959 213.921 2.00959 218.921C1.87679 219.006 1.72405 219.055 1.56637 219.064C1.4087 219.073 1.25152 219.04 1.11028 218.969C0.969048 218.899 0.848616 218.792 0.760831 218.661C0.673045 218.53 0.620925 218.378 0.609593 218.221Z" fill="white"/>
<path opacity="0.2" d="M48.7494 168.819C48.7494 168.819 49.1894 153.299 56.7494 147.289C56.7194 147.289 47.2994 151.339 48.7494 168.819Z" fill="black"/>
<path opacity="0.2" d="M26.0691 134.93C26.0691 134.93 16.9691 139.93 15.5191 208.06C15.5191 208.06 11.5591 139.33 26.0691 134.93Z" fill="black"/>
</g>
<defs>
<clipPath id="clip0_4682_31929">
<rect width="393" height="328" fill="white"/>
</clipPath>
</defs>
</svg>
